<?xml version="1.0" standalone="no"?>
<!DOCTYPE svg PUBLIC "-//W3C//DTD SVG 20010904//EN"
 "http://www.w3.org/TR/2001/REC-SVG-20010904/DTD/svg10.dtd">
<svg version="1.0" xmlns="http://www.w3.org/2000/svg"
 width="700.000000pt" height="700.000000pt" viewBox="0 0 700.000000 700.000000"
 preserveAspectRatio="xMidYMid meet">
<metadata>
Created by potrace 1.14, written by Peter Selinger 2001-2017
</metadata>
<g transform="translate(0.000000,700.000000) scale(0.100000,-0.100000)"
fill="#000000" stroke="none">
<path d="M2454 4726 c-2 -6 -3 -562 -2 -1236 l3 -1225 490 0 c448 1 597 5 680
20 101 18 149 31 225 57 84 29 222 98 248 124 7 8 18 14 23 14 18 0 175 164
217 227 102 152 174 355 199 564 15 129 8 448 -12 550 -3 13 -7 36 -10 50 -12
64 -59 209 -90 276 -92 199 -258 370 -448 461 -105 50 -246 93 -352 108 -27 3
-59 8 -70 11 -44 11 -1097 10 -1101 -1z"/>
</g>
</svg>
