<?xml version="1.0" standalone="no"?>
<!DOCTYPE svg PUBLIC "-//W3C//DTD SVG 20010904//EN"
 "http://www.w3.org/TR/2001/REC-SVG-20010904/DTD/svg10.dtd">
<svg version="1.0" xmlns="http://www.w3.org/2000/svg"
 width="1707.000000pt" height="1707.000000pt" viewBox="0 0 1707.000000 1707.000000"
 preserveAspectRatio="xMidYMid meet">
<metadata>
Created by potrace 1.14, written by Peter Selinger 2001-2017
</metadata>
<g transform="translate(0.000000,1707.000000) scale(0.100000,-0.100000)"
fill="#000000" stroke="none">
<path d="M11765 17054 c-44 -7 -97 -15 -117 -18 -74 -10 -255 -59 -358 -96
-394 -140 -772 -379 -1235 -779 -60 -53 -115 -100 -121 -106 -6 -5 -53 -48
-104 -95 -51 -47 -114 -105 -139 -128 -25 -24 -97 -92 -160 -150 -63 -59 -126
-118 -140 -132 -319 -301 -491 -443 -721 -597 -482 -321 -1142 -597 -1945
-813 -82 -22 -166 -45 -185 -50 -82 -24 -393 -97 -760 -179 -104 -24 -387 -81
-398 -81 -6 0 -55 28 -109 63 -54 35 -163 103 -243 151 -80 47 -152 91 -160
96 -122 75 -571 306 -780 400 -434 196 -944 375 -1407 495 -72 19 -142 36
-155 39 -13 2 -61 13 -108 24 -213 50 -379 79 -505 87 -163 11 -432 6 -485
-10 -8 -2 -31 -7 -50 -10 -19 -3 -57 -13 -85 -22 -297 -94 -502 -284 -624
-581 -32 -77 -86 -281 -96 -360 -4 -26 -8 -58 -10 -71 -24 -144 -24 -630 0
-866 2 -22 6 -74 10 -115 6 -79 22 -234 30 -285 2 -16 7 -55 10 -85 3 -30 15
-118 25 -195 11 -77 23 -160 25 -185 3 -25 10 -65 15 -90 5 -25 12 -67 16 -95
4 -27 8 -56 10 -63 1 -8 8 -46 14 -85 14 -84 17 -96 30 -162 5 -27 12 -61 14
-75 58 -329 216 -946 350 -1370 92 -294 295 -866 345 -975 12 -24 60 -162 94
-265 36 -109 50 -163 62 -250 9 -55 6 -208 -4 -255 -19 -86 -74 -207 -123
-270 -82 -107 -168 -204 -417 -470 -32 -34 -172 -199 -236 -276 -109 -133
-277 -404 -374 -604 -105 -217 -189 -433 -248 -640 -13 -46 -64 -240 -67 -257
-3 -13 -12 -54 -20 -93 -8 -38 -17 -83 -20 -100 -3 -16 -11 -56 -16 -88 -11
-59 -16 -88 -25 -162 -3 -22 -7 -51 -10 -65 -2 -14 -7 -50 -10 -80 -3 -30 -8
-71 -10 -90 -22 -169 -22 -1025 0 -1215 4 -38 17 -162 20 -195 4 -47 17 -155
20 -180 6 -38 25 -181 30 -225 3 -22 7 -51 10 -65 7 -38 14 -82 20 -126 15
-123 123 -657 201 -1004 59 -259 97 -433 109 -500 3 -14 7 -36 10 -49 2 -12 6
-42 9 -65 23 -188 62 -297 134 -373 37 -38 163 -113 191 -113 17 0 19 3 11 22
-15 39 -127 395 -169 543 -66 230 -167 653 -197 825 -2 14 -9 48 -15 76 -5 28
-12 61 -14 75 -2 13 -9 51 -15 84 -15 88 -27 160 -35 220 -3 22 -8 51 -10 65
-3 14 -7 48 -10 75 -3 28 -8 61 -10 75 -5 34 -13 95 -20 160 -4 30 -8 66 -10
80 -2 14 -6 61 -10 104 -4 43 -8 87 -10 96 -2 10 -6 66 -10 126 -4 60 -8 125
-10 144 -20 215 -20 905 0 1080 2 19 7 69 10 110 9 110 17 182 29 270 3 19 8
53 11 75 3 23 7 52 10 65 3 13 7 42 10 65 11 73 46 238 72 335 107 409 232
687 434 972 270 380 672 613 1127 654 62 5 270 5 302 0 14 -2 53 -7 87 -10 35
-4 68 -8 75 -11 7 -2 31 -7 52 -10 74 -10 323 -79 381 -104 11 -5 65 -26 120
-47 126 -48 423 -198 580 -293 450 -272 846 -631 1097 -992 247 -354 395 -718
424 -1039 10 -108 10 -363 0 -455 -10 -95 -50 -262 -87 -365 -34 -91 -122
-275 -145 -301 -8 -8 -14 -19 -14 -23 0 -21 -154 -207 -239 -288 -184 -176
-435 -315 -676 -377 -174 -44 -522 -47 -720 -6 -124 26 -302 88 -427 149 -119
58 -138 69 -229 128 -63 40 -57 36 -184 140 -215 177 -417 436 -534 683 -177
372 -212 424 -305 460 -39 15 -47 15 -79 1 -53 -22 -70 -69 -63 -171 12 -178
118 -448 268 -680 143 -223 447 -533 668 -682 233 -157 587 -288 860 -317 154
-17 251 -22 540 -31 568 -17 632 -22 828 -61 152 -31 459 -177 604 -289 14
-11 39 -29 54 -40 47 -33 215 -175 274 -231 30 -28 71 -66 90 -84 19 -18 91
-85 160 -150 200 -188 334 -310 390 -356 19 -16 37 -31 40 -34 30 -33 257
-186 352 -238 209 -114 357 -156 903 -262 83 -16 161 -32 175 -35 14 -3 59
-12 100 -20 365 -71 679 -218 845 -396 103 -110 179 -222 172 -253 -3 -11 -25
-95 -50 -186 -54 -199 -84 -327 -92 -396 -6 -49 -4 -53 22 -72 41 -29 148 -63
189 -60 20 1 42 11 53 23 23 25 75 186 110 345 20 90 94 359 118 428 70 208
189 399 421 675 228 271 606 592 887 752 28 16 52 32 55 35 8 11 331 168 390
190 266 102 444 149 690 184 104 15 472 16 530 2 33 -8 79 -17 110 -20 155
-20 461 -137 625 -239 335 -208 588 -489 766 -850 52 -105 133 -331 143 -402
4 -22 11 -56 16 -75 7 -30 14 -76 25 -175 1 -11 3 -106 4 -211 l1 -191 39 -11
c125 -38 264 26 328 152 24 46 27 65 31 183 4 112 -5 228 -22 308 -74 344
-241 708 -479 1043 -108 152 -314 369 -519 548 l-67 59 23 40 c13 22 36 63 51
90 16 28 61 108 102 178 40 71 90 158 110 195 20 37 39 72 43 77 5 6 17 26 27
45 65 115 345 608 353 620 5 8 19 33 31 54 35 66 355 619 398 690 23 36 41 68
41 71 0 5 88 144 149 235 132 198 261 281 437 281 124 0 212 -41 324 -153 108
-109 178 -242 204 -393 17 -95 10 -250 -14 -345 -5 -19 -11 -47 -14 -62 -7
-40 -51 -184 -102 -333 -180 -524 -199 -612 -198 -930 1 -387 54 -644 201
-973 171 -381 432 -720 728 -945 5 -4 21 -16 34 -27 48 -40 219 -150 296 -190
189 -100 439 -182 554 -182 103 0 163 32 222 118 l31 46 -2 231 c-1 128 -3
259 -5 292 -6 124 -16 261 -20 295 -3 19 -7 62 -11 95 -3 33 -7 71 -9 85 -2
14 -11 75 -20 135 -28 189 -78 439 -121 600 -8 33 -17 67 -19 75 -7 33 -39
141 -78 265 -22 72 -41 132 -42 135 -2 17 -99 277 -106 285 -5 5 -9 15 -9 22
0 42 -232 538 -357 763 -215 386 -480 761 -800 1130 -12 14 -31 36 -43 50 -12
14 -47 54 -78 89 -88 98 -235 285 -288 364 -71 106 -150 261 -183 364 -40 122
-53 226 -50 408 2 139 7 182 45 388 3 16 30 129 60 250 66 266 130 546 139
607 4 25 8 47 10 50 1 3 6 28 9 55 4 28 9 57 11 65 2 8 6 38 10 65 3 28 7 61
10 75 49 284 49 926 0 1250 -2 14 -7 48 -11 75 -3 28 -8 59 -10 70 -2 11 -9
47 -14 80 -47 266 -127 577 -222 858 -56 169 -236 652 -268 722 -5 11 -19 45
-30 75 -11 30 -25 64 -30 75 -13 29 -162 417 -194 505 -15 41 -31 82 -35 90
-11 21 -159 469 -165 500 -3 14 -10 41 -16 60 -12 39 -56 228 -64 275 -3 17
-10 55 -16 85 -6 30 -13 78 -16 105 -3 28 -7 57 -9 65 -8 25 -31 247 -40 370
-3 41 -8 98 -10 125 -4 47 -8 116 -20 335 -3 52 -7 129 -10 170 -2 41 -7 125
-10 185 -9 163 -22 345 -30 420 -2 22 -7 67 -10 100 -7 71 -14 130 -20 165 -2
14 -7 43 -10 65 -8 55 -23 145 -30 175 -3 14 -8 41 -11 60 -10 61 -71 292
-102 385 -131 394 -314 699 -567 950 -81 81 -104 100 -210 180 -171 127 -448
243 -645 270 -149 20 -415 25 -515 9z m326 -477 c287 -42 618 -289 851 -635
215 -319 381 -712 474 -1122 8 -36 17 -74 20 -85 6 -25 32 -160 39 -202 3 -18
7 -45 9 -60 4 -25 17 -123 31 -248 23 -192 23 -635 0 -776 -2 -13 -6 -49 -9
-79 -7 -62 -13 -100 -32 -210 -18 -98 -61 -270 -99 -388 -81 -257 -80 -287 18
-422 74 -103 192 -266 200 -275 27 -34 200 -288 263 -388 304 -479 470 -854
594 -1342 26 -104 51 -212 54 -239 4 -27 9 -53 11 -57 3 -4 7 -24 10 -45 3
-22 10 -61 15 -89 14 -75 19 -103 30 -186 6 -41 12 -85 15 -97 2 -11 6 -45 10
-74 3 -29 8 -69 10 -88 3 -19 7 -57 10 -85 3 -27 7 -66 10 -85 4 -32 14 -133
21 -220 23 -285 23 -906 0 -1100 -3 -19 -7 -71 -10 -115 -4 -44 -8 -96 -11
-115 -3 -19 -7 -57 -10 -85 -16 -151 -36 -296 -81 -570 -3 -16 -7 -37 -9 -45
-2 -8 -7 -31 -10 -50 -8 -53 -44 -217 -61 -285 -9 -33 -18 -69 -20 -80 -2 -11
-16 -63 -30 -115 -26 -91 -37 -125 -85 -242 -19 -46 -176 -486 -183 -513 -2
-5 -6 -17 -9 -25 -4 -8 -20 -53 -37 -100 -154 -425 -428 -847 -780 -1201 -286
-287 -600 -528 -975 -748 -183 -108 -1056 -541 -1090 -541 -7 0 -18 -7 -25
-15 -7 -8 -16 -15 -21 -15 -5 0 -48 -18 -95 -40 -47 -22 -88 -40 -90 -40 -2 0
-36 -15 -76 -34 -130 -59 -170 -77 -381 -167 -114 -49 -210 -89 -213 -89 -4 0
-20 -6 -37 -14 -18 -8 -77 -31 -132 -51 -55 -20 -120 -45 -145 -55 -137 -54
-506 -160 -680 -194 -136 -27 -288 -49 -428 -63 -144 -14 -757 -6 -862 11 -14
3 -47 7 -75 11 -95 11 -231 36 -390 71 -11 2 -31 6 -45 9 -20 4 -178 45 -310
80 -305 80 -825 268 -1240 447 -294 126 -768 355 -853 412 -17 11 -45 28 -61
36 -16 8 -47 31 -69 50 -66 59 -57 99 45 196 59 55 136 142 181 204 171 235
246 376 272 507 27 137 28 487 2 618 -7 33 -19 98 -23 125 -4 25 -8 44 -39
175 -9 39 -18 77 -20 85 -2 8 -17 67 -35 130 -141 517 -240 775 -385 1009 -52
84 -368 486 -444 566 -83 87 -104 138 -82 199 8 19 154 203 181 226 3 3 41 48
85 100 44 52 83 97 86 100 3 3 47 57 96 122 322 416 808 1258 995 1723 125
313 235 769 273 1140 4 33 8 67 10 75 2 8 7 42 10 75 3 33 8 74 10 90 2 17 7
66 11 110 3 44 8 87 9 95 2 9 6 57 10 109 4 51 8 105 10 119 18 145 25 580 12
697 -21 188 -62 336 -150 552 -67 163 -130 284 -205 398 -78 116 -94 153 -94
217 -1 76 42 130 167 210 122 78 351 157 765 261 438 110 853 195 1190 243 19
3 46 7 60 9 14 3 48 7 75 10 28 3 66 8 85 10 19 3 55 7 80 10 25 3 63 7 85 10
22 2 74 7 115 10 41 3 104 8 140 10 110 9 153 17 193 37 82 41 235 219 412
478 261 382 336 471 700 835 247 247 356 344 541 482 16 12 49 36 74 55 57 43
349 236 415 274 27 16 57 34 66 39 10 6 73 40 141 77 282 152 514 241 678 261
37 4 229 0 271 -6z m-10051 -2802 c249 -33 580 -176 885 -383 363 -246 539
-500 604 -872 10 -56 8 -218 -3 -280 -31 -167 -151 -401 -295 -570 -189 -223
-534 -514 -711 -599 -67 -32 -84 -36 -155 -36 -107 0 -156 24 -260 129 -65 66
-215 268 -215 291 0 3 -11 22 -23 43 -63 100 -247 461 -247 485 0 7 -4 17 -9
23 -30 32 -181 486 -204 614 -3 14 -17 77 -31 140 -15 63 -34 144 -42 180 -83
365 -59 555 91 706 71 71 149 111 250 129 75 12 274 13 365 0z"/>
<path d="M11888 15785 c-2 -1 -28 -5 -59 -8 -31 -4 -69 -11 -85 -17 -16 -6
-30 -11 -32 -10 -19 7 -271 -93 -347 -139 -33 -20 -72 -42 -86 -49 -31 -16
-196 -139 -270 -202 -57 -48 -261 -249 -319 -315 -38 -43 -116 -138 -165 -200
-68 -86 -223 -315 -264 -389 -28 -50 -93 -196 -92 -206 1 -3 -2 -20 -5 -39
-20 -106 -5 -202 45 -274 44 -65 135 -126 297 -201 76 -35 288 -137 469 -226
615 -303 698 -341 790 -368 105 -31 188 -43 284 -43 94 1 104 2 177 24 191 57
336 225 417 483 56 178 81 368 80 614 0 115 -10 318 -18 358 -1 9 -6 40 -9 67
-4 28 -9 61 -11 75 -3 14 -7 36 -10 50 -3 14 -7 36 -10 50 -2 14 -7 40 -10 58
-3 18 -21 101 -40 185 -20 84 -37 163 -40 177 -2 14 -16 62 -29 108 -69 231
-204 373 -401 422 -44 11 -248 23 -257 15z m-60 -414 c22 -2 100 -88 126 -139
51 -102 120 -355 185 -679 30 -145 33 -162 46 -253 4 -25 9 -58 11 -74 15 -95
28 -306 28 -474 0 -162 0 -163 -26 -189 -51 -51 -154 -28 -456 101 -317 136
-694 378 -885 569 -92 91 -109 160 -62 253 22 45 271 384 300 409 6 6 41 46
77 90 36 44 99 112 140 151 191 184 341 253 516 235z"/>
<path d="M11940 9458 c-88 -22 -193 -82 -471 -269 -331 -223 -433 -359 -416
-560 8 -101 60 -184 139 -225 40 -21 127 -34 154 -23 48 18 93 83 148 214 110
262 164 329 331 411 93 45 106 49 175 49 85 0 123 -17 238 -108 35 -27 79 -60
98 -73 33 -23 121 -43 160 -38 79 11 102 18 132 41 71 53 91 157 48 248 -26
58 -133 162 -218 213 -69 41 -203 97 -271 112 -66 16 -202 20 -247 8z"/>
<path d="M13299 8144 c-210 -47 -577 -171 -702 -237 -68 -36 -107 -85 -107
-137 0 -49 47 -136 92 -172 72 -56 127 -48 354 56 93 43 170 65 281 81 73 10
153 34 217 65 101 49 121 81 125 201 2 87 -8 121 -43 145 -38 24 -100 23 -217
-2z"/>
<path d="M6635 7822 c-86 -10 -217 -43 -270 -67 -190 -87 -369 -280 -485 -521
-73 -152 -62 -244 37 -311 62 -41 92 -48 153 -33 63 15 103 54 164 159 51 87
93 139 186 230 138 134 230 175 390 175 98 -1 114 -4 245 -49 171 -58 252 -65
325 -27 53 27 93 80 92 122 -2 66 -87 177 -169 218 -44 23 -162 57 -228 67
-40 5 -75 11 -130 20 -16 3 -82 8 -145 11 -63 3 -119 7 -125 8 -5 1 -23 0 -40
-2z"/>
<path d="M13655 7414 c-33 -8 -69 -15 -80 -18 -36 -8 -178 -45 -306 -80 -295
-81 -332 -96 -374 -150 -57 -75 -53 -140 10 -170 68 -33 156 -24 297 28 151
56 152 56 388 71 198 12 255 26 287 73 39 59 13 174 -52 230 -33 29 -87 34
-170 16z"/>
<path d="M9809 7316 c-2 -2 -33 -6 -69 -10 -248 -23 -538 -164 -730 -356 -241
-238 -292 -450 -147 -607 75 -82 206 -133 487 -189 14 -3 33 -7 42 -10 16 -5
40 -10 87 -20 53 -11 147 -47 165 -62 19 -18 37 -54 41 -87 2 -11 8 -49 15
-85 17 -98 18 -101 25 -176 4 -38 8 -80 10 -93 17 -104 24 -325 13 -391 -3
-19 -16 -66 -29 -105 -12 -38 -23 -72 -24 -75 -14 -45 -51 -127 -82 -180 -70
-121 -192 -209 -343 -246 -54 -13 -237 -13 -289 0 -145 35 -318 129 -431 232
-82 76 -176 143 -206 149 -37 7 -90 -12 -116 -41 -9 -11 -29 -43 -44 -73 -63
-126 -19 -301 103 -410 69 -61 195 -129 318 -169 155 -51 304 -70 511 -66 239
4 396 37 522 110 59 34 161 138 187 190 79 158 199 312 279 359 71 42 113 46
197 19 41 -13 108 -28 149 -32 74 -9 617 -7 655 1 11 3 49 8 84 12 85 10 158
36 212 74 39 29 151 125 188 161 8 8 31 28 50 43 79 63 170 150 196 186 32 47
61 137 71 217 3 33 8 67 10 78 6 30 15 146 18 219 7 166 -93 245 -294 235
-159 -9 -193 -47 -205 -233 -9 -121 -17 -183 -41 -284 -31 -138 -75 -194 -199
-255 -62 -31 -101 -44 -195 -63 -33 -7 -288 -7 -320 0 -142 30 -198 52 -299
115 -68 42 -141 115 -164 164 -17 35 -30 91 -45 188 -9 60 -9 295 1 344 16 86
71 225 138 355 205 394 212 411 213 536 0 93 -14 128 -78 187 -99 93 -288 146
-522 147 -62 0 -113 -2 -115 -3z"/>
<path d="M13100 6314 c-95 -41 -126 -114 -84 -199 36 -73 88 -112 146 -109 23
2 87 6 140 10 111 7 160 -2 258 -48 125 -59 155 -69 201 -70 26 0 58 6 72 14
71 38 187 161 187 199 0 72 -205 171 -405 194 -33 4 -69 9 -80 12 -11 2 -105
6 -210 8 -156 4 -196 2 -225 -11z"/>
<path d="M6477 6145 c-129 -45 -323 -146 -456 -239 -184 -126 -307 -288 -271
-356 13 -24 77 -42 122 -35 111 19 697 261 788 325 79 56 89 215 18 296 -27
31 -35 34 -82 33 -28 0 -82 -11 -119 -24z"/>
<path d="M6440 5295 c-202 -42 -378 -145 -476 -277 -72 -99 -84 -184 -37 -270
30 -56 91 -101 133 -100 65 2 141 51 277 179 41 38 64 42 246 48 153 5 199 18
251 73 100 107 -28 321 -209 349 -59 9 -136 8 -185 -2z"/>
<path d="M6642 4451 c-62 -21 -106 -57 -215 -171 -257 -270 -299 -360 -210
-455 46 -48 94 -68 169 -67 110 1 217 65 304 181 54 71 92 95 197 121 188 47
227 76 240 176 13 105 -43 153 -231 199 -137 33 -192 37 -254 16z"/>
<path d="M4037 5975 c-60 -21 -67 -31 -67 -99 0 -80 19 -148 64 -231 99 -184
318 -385 420 -385 68 0 160 87 173 163 8 49 -14 101 -95 222 -72 109 -172 216
-241 259 -44 28 -151 72 -193 80 -13 2 -40 -2 -61 -9z"/>
<path d="M3149 5602 c-51 -26 -86 -97 -80 -165 0 -9 39 -55 86 -102 87 -87
121 -142 169 -268 59 -156 91 -188 189 -191 83 -3 137 11 166 42 21 23 23 32
18 88 -7 82 -47 193 -93 263 -89 134 -276 294 -398 341 -17 6 -33 4 -57 -8z"/>
<path d="M2272 5185 c-55 -39 -41 -140 37 -268 62 -101 105 -200 142 -329 44
-153 60 -176 124 -179 105 -6 165 64 173 201 3 62 0 88 -23 155 -33 100 -99
208 -173 283 -136 138 -219 179 -280 137z"/>
</g>
</svg>
